<?xml version="1.0" encoding="UTF-8"?>
<svg xmlns="http://www.w3.org/2000/svg" xmlns:xlink="http://www.w3.org/1999/xlink" width="405.333333" height="196" viewBox="0 0 405.333333 196" version="1.1">
<defs>
<clipPath id="clip1">
  <path d="M 16 94.167969 L 22.332031 94.167969 L 22.332031 100.5 L 16 100.5 Z M 16 94.167969 "/>
</clipPath>
<clipPath id="clip2">
  <path d="M 382 94.167969 L 388.332031 94.167969 L 388.332031 100.5 L 382 100.5 Z M 382 94.167969 "/>
</clipPath>
</defs>
<g id="surface1">
<path style="fill:none;stroke-width:1;stroke-linecap:round;stroke-linejoin:round;stroke:rgb(0%,0%,0%);stroke-opacity:1;stroke-miterlimit:10;" d="M 471.399414 271.254883 L 549.000977 271.254883 L 549.000977 289.254883 L 471.399414 289.254883 Z M 471.399414 271.254883 " transform="matrix(1.333333,0,0,1.333333,-593.333333,-229.333333)"/>
<path style=" stroke:none;fill-rule:nonzero;fill:rgb(0%,0%,0%);fill-opacity:1;" d="M 69.726562 143.527344 L 69.726562 144.300781 L 70.640625 144.300781 L 70.640625 150.089844 L 71.476562 150.089844 L 71.476562 149.445312 L 74.164062 149.445312 L 74.164062 144.300781 L 75.058594 144.300781 L 75.058594 143.527344 L 74.164062 143.527344 L 74.164062 142.339844 L 73.328125 142.339844 L 73.328125 143.527344 L 71.476562 143.527344 L 71.476562 142.320312 L 70.640625 142.320312 L 70.640625 143.527344 Z M 71.476562 148.652344 L 71.476562 146.820312 L 73.328125 146.820312 L 73.328125 148.652344 Z M 73.328125 146.050781 L 71.476562 146.050781 L 71.476562 144.300781 L 73.328125 144.300781 Z M 74.515625 139.257812 L 74.515625 140.945312 L 71.390625 140.945312 L 71.390625 139.652344 L 70.515625 139.652344 L 70.515625 141.714844 L 79.308594 141.714844 L 79.308594 139.632812 L 78.433594 139.632812 L 78.433594 140.945312 L 75.390625 140.945312 L 75.390625 139.257812 Z M 76.121094 142.050781 C 75.933594 143.632812 75.476562 144.882812 74.789062 145.757812 L 75.453125 146.214844 C 75.890625 145.675781 76.246094 144.964844 76.496094 144.113281 L 79.039062 144.113281 C 78.890625 144.777344 78.683594 145.382812 78.453125 145.925781 L 79.203125 146.132812 C 79.476562 145.402344 79.703125 144.632812 79.890625 143.863281 L 79.890625 143.339844 L 76.703125 143.339844 C 76.789062 142.988281 76.871094 142.589844 76.933594 142.175781 Z M 76.996094 144.714844 C 76.996094 145.820312 76.871094 146.738281 76.621094 147.445312 C 76.289062 148.277344 75.601562 148.988281 74.558594 149.550781 L 75.078125 150.214844 C 76.289062 149.527344 77.078125 148.675781 77.414062 147.632812 L 77.433594 147.550781 C 77.996094 148.613281 78.851562 149.507812 79.953125 150.214844 L 80.496094 149.570312 C 79.164062 148.800781 78.226562 147.757812 77.664062 146.445312 C 77.746094 145.902344 77.789062 145.339844 77.789062 144.714844 Z M 76.996094 144.714844 "/>
<path style=" stroke:none;fill-rule:nonzero;fill:rgb(0%,0%,0%);fill-opacity:1;" d="M 86.414062 141.988281 C 85.640625 145.175781 83.976562 147.632812 81.390625 149.300781 L 81.914062 150.050781 C 84.433594 148.402344 86.101562 146.050781 86.890625 142.988281 C 86.953125 143.132812 86.996094 143.300781 87.078125 143.507812 C 88.308594 146.675781 89.890625 148.863281 91.851562 150.027344 L 92.390625 149.339844 C 90.476562 148.152344 88.976562 146.113281 87.851562 143.257812 C 87.121094 141.300781 86.203125 139.945312 85.140625 139.195312 L 84.433594 139.652344 C 85.183594 140.214844 85.851562 140.988281 86.414062 141.988281 Z M 86.414062 141.988281 "/>
<path style=" stroke:none;fill-rule:nonzero;fill:rgb(0%,0%,0%);fill-opacity:1;" d="M 96.828125 143.800781 L 96.828125 144.570312 L 103.328125 144.570312 L 103.328125 143.800781 Z M 95.976562 145.757812 L 95.976562 146.550781 L 98.601562 146.550781 C 97.765625 147.902344 97.058594 148.738281 96.539062 149.050781 C 96.476562 149.070312 96.433594 149.113281 96.351562 149.132812 L 96.539062 149.863281 C 98.808594 149.714844 100.890625 149.507812 102.789062 149.257812 C 103.039062 149.550781 103.246094 149.863281 103.453125 150.175781 L 104.140625 149.695312 C 103.621094 148.925781 102.851562 148.007812 101.871094 146.964844 L 101.226562 147.363281 C 101.578125 147.777344 101.933594 148.175781 102.265625 148.570312 C 100.726562 148.800781 99.164062 148.964844 97.578125 149.070312 C 98.140625 148.570312 98.789062 147.714844 99.515625 146.550781 L 104.121094 146.550781 L 104.121094 145.757812 Z M 102.664062 140.488281 L 102.664062 141.882812 L 95.601562 141.882812 L 95.601562 140.488281 Z M 95.601562 142.652344 L 103.496094 142.652344 L 103.496094 139.675781 L 94.765625 139.675781 L 94.765625 143.652344 C 94.746094 146.070312 94.328125 148.027344 93.496094 149.550781 L 94.121094 150.132812 C 95.101562 148.320312 95.601562 146.152344 95.601562 143.652344 Z M 95.601562 142.652344 "/>
<path style=" stroke:none;fill-rule:nonzero;fill:rgb(0%,0%,0%);fill-opacity:1;" d="M 82.308594 179.238281 L 81.726562 179.800781 C 82.640625 180.464844 83.351562 181.089844 83.890625 181.652344 L 84.476562 181.070312 C 83.890625 180.464844 83.164062 179.863281 82.308594 179.238281 Z M 82.101562 182.175781 L 81.515625 182.738281 C 82.371094 183.382812 83.039062 183.964844 83.515625 184.550781 L 84.101562 183.945312 C 83.558594 183.363281 82.890625 182.777344 82.101562 182.175781 Z M 83.496094 185.425781 C 82.976562 186.839844 82.371094 188.238281 81.640625 189.613281 L 82.453125 189.964844 C 83.101562 188.632812 83.703125 187.214844 84.226562 185.695312 Z M 86.703125 181.382812 L 86.703125 185.589844 L 88.765625 185.589844 L 88.765625 188.777344 C 88.765625 189.089844 88.621094 189.238281 88.351562 189.238281 C 88.058594 189.238281 87.765625 189.214844 87.453125 189.175781 L 87.621094 189.964844 L 88.640625 189.964844 C 89.265625 189.964844 89.578125 189.632812 89.578125 188.988281 L 89.578125 185.589844 L 91.578125 185.589844 L 91.578125 181.382812 L 89.246094 181.382812 C 89.371094 181.027344 89.476562 180.652344 89.558594 180.257812 L 92.203125 180.257812 L 92.203125 179.464844 L 85.015625 179.464844 L 85.015625 183.757812 C 84.976562 186.175781 84.578125 188.050781 83.828125 189.402344 L 84.476562 189.988281 C 85.351562 188.425781 85.808594 186.339844 85.851562 183.757812 L 85.851562 180.257812 L 88.746094 180.257812 C 88.664062 180.632812 88.558594 181.007812 88.414062 181.382812 Z M 90.808594 184.902344 L 87.476562 184.902344 L 87.476562 183.820312 L 90.808594 183.820312 Z M 87.476562 183.175781 L 87.476562 182.070312 L 90.808594 182.070312 L 90.808594 183.175781 Z M 86.996094 186.445312 C 86.746094 187.363281 86.351562 188.195312 85.789062 188.945312 L 86.476562 189.382812 C 87.039062 188.589844 87.453125 187.675781 87.765625 186.613281 Z M 91.078125 186.382812 L 90.371094 186.632812 C 90.828125 187.425781 91.246094 188.339844 91.640625 189.363281 L 92.371094 189.050781 C 92.015625 188.113281 91.578125 187.214844 91.078125 186.382812 Z M 91.078125 186.382812 "/>
<path style="fill:none;stroke-width:1;stroke-linecap:round;stroke-linejoin:round;stroke:rgb(0%,0%,0%);stroke-opacity:1;stroke-miterlimit:10;" d="M 510.200195 301.600586 L 510.200195 295.155273 " transform="matrix(1.333333,0,0,1.333333,-593.333333,-229.333333)"/>
<path style="fill:none;stroke-width:1;stroke-linecap:butt;stroke-linejoin:miter;stroke:rgb(0%,0%,0%);stroke-opacity:1;stroke-miterlimit:10;" d="M 510.200195 291.15625 L 510.200195 295.155273 M 508.700195 295.155273 L 510.200195 291.15625 L 511.700195 295.155273 " transform="matrix(1.333333,0,0,1.333333,-593.333333,-229.333333)"/>
<path style=" stroke:none;fill-rule:nonzero;fill:rgb(0%,0%,0%);fill-opacity:1;" d="M 306.457031 17.488281 L 307.875 17.488281 L 307.875 18.945312 L 305.269531 18.945312 L 305.269531 19.714844 L 307.875 19.714844 L 307.875 22.070312 L 308.707031 22.070312 L 308.707031 19.714844 L 310.75 19.714844 L 310.75 18.945312 L 308.707031 18.945312 L 308.707031 17.488281 L 310.5 17.488281 L 310.5 16.695312 L 308.707031 16.695312 L 308.707031 15.589844 L 307.875 15.589844 L 307.875 16.695312 L 306.769531 16.695312 C 306.851562 16.425781 306.914062 16.132812 306.976562 15.800781 L 306.269531 15.675781 C 306.082031 16.632812 305.75 17.382812 305.207031 17.964844 L 305.707031 18.570312 C 306 18.257812 306.25 17.902344 306.457031 17.488281 Z M 306.957031 12.527344 C 306.875 12.925781 306.726562 13.277344 306.5625 13.589844 C 306.289062 14.007812 305.875 14.402344 305.351562 14.714844 L 305.851562 15.363281 C 306.457031 14.964844 306.9375 14.488281 307.25 13.988281 C 307.476562 13.570312 307.644531 13.070312 307.769531 12.527344 L 309.539062 12.527344 C 309.5 13.382812 309.457031 13.925781 309.394531 14.132812 C 309.3125 14.339844 309.101562 14.445312 308.769531 14.464844 C 308.476562 14.445312 308.144531 14.425781 307.726562 14.402344 L 307.9375 15.113281 C 308.3125 15.132812 308.664062 15.175781 308.9375 15.175781 C 309.457031 15.175781 309.8125 14.988281 310.039062 14.695312 C 310.25 14.363281 310.351562 13.382812 310.351562 11.757812 L 305.351562 11.757812 L 305.351562 12.527344 Z M 301.289062 16.863281 L 302.375 16.863281 L 302.375 18.425781 L 301.269531 18.425781 C 301.269531 18.339844 301.289062 18.257812 301.289062 18.152344 Z M 301.25 19.152344 L 302.375 19.152344 L 302.375 21.882812 L 303.082031 21.882812 L 303.082031 19.152344 L 304.1875 19.152344 L 304.1875 20.820312 C 304.1875 21.113281 304.0625 21.277344 303.789062 21.277344 C 303.601562 21.277344 303.394531 21.257812 303.164062 21.214844 L 303.375 21.945312 L 304.039062 21.945312 C 304.625 21.945312 304.914062 21.652344 304.914062 21.089844 L 304.914062 13.882812 L 303.476562 13.882812 C 303.75 13.527344 304.019531 13.070312 304.289062 12.527344 L 304.289062 11.945312 L 302.144531 11.945312 C 302.25 11.695312 302.351562 11.425781 302.457031 11.175781 L 301.664062 10.988281 C 301.207031 12.238281 300.625 13.238281 299.894531 14.007812 L 300.414062 14.652344 C 300.457031 14.589844 300.5 14.570312 300.539062 14.507812 L 300.539062 18.195312 C 300.539062 19.570312 300.289062 20.714844 299.832031 21.589844 L 300.414062 22.132812 C 300.851562 21.339844 301.125 20.339844 301.25 19.152344 Z M 302.601562 13.882812 L 301.039062 13.882812 C 301.3125 13.507812 301.582031 13.089844 301.8125 12.652344 L 303.375 12.652344 C 303.101562 13.113281 302.851562 13.527344 302.601562 13.882812 Z M 304.1875 18.425781 L 303.082031 18.425781 L 303.082031 16.863281 L 304.1875 16.863281 Z M 304.1875 16.132812 L 303.082031 16.132812 L 303.082031 14.632812 L 304.1875 14.632812 Z M 302.375 14.632812 L 302.375 16.132812 L 301.289062 16.132812 L 301.289062 14.632812 Z M 302.375 14.632812 "/>
<path style=" stroke:none;fill-rule:nonzero;fill:rgb(0%,0%,0%);fill-opacity:1;" d="M 315.875 15.257812 L 313.664062 15.257812 C 313.976562 14.402344 314.207031 13.507812 314.375 12.550781 L 316.1875 12.550781 L 316.1875 11.714844 L 312.082031 11.714844 L 312.082031 12.550781 L 313.5625 12.550781 C 313.269531 14.339844 312.664062 15.925781 311.75 17.320312 L 312.1875 18.027344 C 312.476562 17.613281 312.726562 17.195312 312.976562 16.757812 L 312.976562 21.652344 L 313.789062 21.652344 L 313.789062 20.738281 L 315.082031 20.738281 L 315.082031 21.425781 L 315.875 21.425781 Z M 313.789062 19.945312 L 313.789062 16.050781 L 315.082031 16.050781 L 315.082031 19.945312 Z M 317.476562 13.195312 L 316.832031 17.089844 L 321.6875 17.089844 C 321.6875 19.007812 321.582031 20.175781 321.394531 20.570312 C 321.226562 20.964844 320.664062 21.175781 319.75 21.175781 C 319.519531 21.175781 319.164062 21.132812 318.625 21.089844 L 318.875 21.925781 C 319.25 21.964844 319.601562 21.964844 319.957031 21.964844 C 321 21.964844 321.6875 21.738281 322.019531 21.300781 C 322.332031 20.863281 322.5 19.195312 322.5 16.277344 L 321.226562 16.277344 L 321.894531 11.550781 L 316.726562 11.550781 L 316.726562 12.363281 L 320.957031 12.363281 L 320.351562 16.277344 L 317.8125 16.277344 L 318.332031 13.257812 Z M 316.476562 18.613281 L 316.476562 19.425781 L 320.851562 19.425781 L 320.851562 18.613281 Z M 316.476562 18.613281 "/>
<path style=" stroke:none;fill-rule:nonzero;fill:rgb(0%,0%,0%);fill-opacity:1;" d="M 325.019531 11.488281 L 325.019531 14.402344 L 328.664062 14.402344 L 328.664062 11.488281 Z M 327.875 13.675781 L 325.789062 13.675781 L 325.789062 12.238281 L 327.875 12.238281 Z M 330 11.488281 L 330 14.402344 L 333.726562 14.402344 L 333.726562 11.488281 Z M 332.957031 13.675781 L 330.789062 13.675781 L 330.789062 12.238281 L 332.957031 12.238281 Z M 324.039062 15.613281 L 324.039062 16.382812 L 327.351562 16.382812 C 326.519531 17.089844 325.332031 17.695312 323.789062 18.132812 L 324.1875 18.839844 C 324.539062 18.738281 324.851562 18.632812 325.1875 18.507812 L 325.1875 22.050781 L 325.9375 22.050781 L 325.9375 21.527344 L 327.976562 21.527344 L 327.976562 22.050781 L 328.75 22.050781 L 328.75 18.277344 L 325.75 18.277344 C 326.875 17.777344 327.769531 17.152344 328.4375 16.382812 L 330.476562 16.382812 C 331.082031 17.113281 331.957031 17.738281 333.101562 18.277344 L 329.914062 18.277344 L 329.914062 22.050781 L 330.6875 22.050781 L 330.6875 21.527344 L 332.914062 21.527344 L 332.914062 22.050781 L 333.6875 22.050781 L 333.6875 18.527344 C 333.957031 18.613281 334.226562 18.738281 334.519531 18.820312 L 334.875 18.089844 C 333.332031 17.675781 332.164062 17.089844 331.375 16.382812 L 334.625 16.382812 L 334.625 15.613281 L 332.976562 15.613281 C 332.769531 15.238281 332.5625 14.882812 332.3125 14.550781 L 331.582031 14.800781 C 331.769531 15.027344 331.957031 15.300781 332.125 15.613281 L 329.019531 15.613281 C 329.1875 15.320312 329.351562 15.027344 329.457031 14.714844 L 328.644531 14.632812 C 328.5 14.964844 328.3125 15.300781 328.082031 15.613281 Z M 325.9375 20.800781 L 325.9375 18.988281 L 327.976562 18.988281 L 327.976562 20.800781 Z M 330.6875 20.800781 L 330.6875 18.988281 L 332.914062 18.988281 L 332.914062 20.800781 Z M 330.6875 20.800781 "/>
<path style=" stroke:none;fill-rule:nonzero;fill:rgb(0%,0%,0%);fill-opacity:1;" d="M 12.1875 99.269531 C 12.105469 99.375 12.019531 99.480469 11.9375 99.582031 C 11.582031 100.019531 11.375 100.207031 11.207031 100.207031 C 11.0625 100.207031 11.019531 100.105469 11.019531 100 C 11.019531 99.894531 11.0625 99.6875 11.1875 99.269531 L 11.855469 96.832031 C 11.917969 96.582031 11.980469 96.3125 11.980469 96.105469 C 11.980469 95.667969 11.707031 95.375 11.1875 95.375 C 10.417969 95.375 9.625 96.105469 8.417969 98.019531 L 9.230469 95.394531 L 9.167969 95.375 C 8.542969 95.5 8.207031 95.5625 7.230469 95.75 L 7.230469 95.9375 C 7.832031 95.957031 8.019531 96.019531 8.019531 96.269531 C 8.019531 96.332031 8 96.417969 7.980469 96.457031 L 6.832031 100.667969 L 7.730469 100.667969 C 8.292969 98.769531 8.394531 98.5 8.9375 97.6875 C 9.6875 96.582031 10.230469 95.980469 10.707031 95.980469 C 10.894531 95.980469 11 96.125 11 96.332031 C 11 96.480469 10.917969 96.917969 10.832031 97.292969 L 10.3125 99.230469 C 10.125 99.855469 10.105469 100 10.105469 100.125 C 10.105469 100.582031 10.375 100.769531 10.667969 100.769531 C 11.230469 100.769531 11.542969 100.542969 12.355469 99.417969 Z M 12.1875 99.269531 "/>
<g clip-path="url(#clip1)" clip-rule="nonzero">
<path style=" stroke:none;fill-rule:nonzero;fill:rgb(0%,0%,0%);fill-opacity:1;" d="M 19.484375 97.316406 L 21.859375 94.941406 C 21.984375 94.796875 22.023438 94.773438 22.023438 94.691406 C 22.023438 94.546875 21.898438 94.441406 21.773438 94.441406 C 21.691406 94.441406 21.628906 94.484375 21.523438 94.609375 L 19.128906 96.984375 L 16.734375 94.609375 C 16.609375 94.460938 16.566406 94.441406 16.484375 94.441406 C 16.359375 94.441406 16.234375 94.546875 16.234375 94.691406 C 16.234375 94.773438 16.296875 94.835938 16.398438 94.941406 L 18.773438 97.316406 L 16.398438 99.710938 C 16.273438 99.816406 16.234375 99.898438 16.234375 99.960938 C 16.234375 100.109375 16.359375 100.210938 16.484375 100.210938 C 16.566406 100.210938 16.609375 100.191406 16.734375 100.046875 L 19.128906 97.671875 L 21.523438 100.046875 C 21.628906 100.171875 21.710938 100.210938 21.773438 100.210938 C 21.921875 100.210938 22.023438 100.109375 22.023438 99.960938 C 22.023438 99.878906 21.984375 99.859375 21.859375 99.710938 Z M 19.484375 97.316406 "/>
<path style=" stroke:none;fill-rule:nonzero;fill:rgb(0%,0%,0%);fill-opacity:1;" d="M 19.484375 97.316406 L 21.859375 94.941406 C 21.984375 94.796875 22.023438 94.773438 22.023438 94.691406 C 22.023438 94.546875 21.898438 94.441406 21.773438 94.441406 C 21.691406 94.441406 21.628906 94.484375 21.523438 94.609375 L 19.128906 96.984375 L 16.734375 94.609375 C 16.609375 94.460938 16.566406 94.441406 16.484375 94.441406 C 16.359375 94.441406 16.234375 94.546875 16.234375 94.691406 C 16.234375 94.773438 16.296875 94.835938 16.398438 94.941406 L 18.773438 97.316406 L 16.398438 99.710938 C 16.273438 99.816406 16.234375 99.898438 16.234375 99.960938 C 16.234375 100.109375 16.359375 100.210938 16.484375 100.210938 C 16.566406 100.210938 16.609375 100.191406 16.734375 100.046875 L 19.128906 97.671875 L 21.523438 100.046875 C 21.628906 100.171875 21.710938 100.210938 21.773438 100.210938 C 21.921875 100.210938 22.023438 100.109375 22.023438 99.960938 C 22.023438 99.878906 21.984375 99.859375 21.859375 99.710938 Z M 19.484375 97.316406 "/>
</g>
<path style="fill:none;stroke-width:1;stroke-linecap:round;stroke-linejoin:round;stroke:rgb(0%,0%,0%);stroke-opacity:1;stroke-miterlimit:10;" d="M 644.198242 271.254883 L 721.799805 271.254883 L 721.799805 289.254883 L 644.198242 289.254883 Z M 644.198242 271.254883 " transform="matrix(1.333333,0,0,1.333333,-593.333333,-229.333333)"/>
<path style=" stroke:none;fill-rule:nonzero;fill:rgb(0%,0%,0%);fill-opacity:1;" d="M 300.125 143.527344 L 300.125 144.300781 L 301.039062 144.300781 L 301.039062 150.089844 L 301.875 150.089844 L 301.875 149.445312 L 304.5625 149.445312 L 304.5625 144.300781 L 305.457031 144.300781 L 305.457031 143.527344 L 304.5625 143.527344 L 304.5625 142.339844 L 303.726562 142.339844 L 303.726562 143.527344 L 301.875 143.527344 L 301.875 142.320312 L 301.039062 142.320312 L 301.039062 143.527344 Z M 301.875 148.652344 L 301.875 146.820312 L 303.726562 146.820312 L 303.726562 148.652344 Z M 303.726562 146.050781 L 301.875 146.050781 L 301.875 144.300781 L 303.726562 144.300781 Z M 304.914062 139.257812 L 304.914062 140.945312 L 301.789062 140.945312 L 301.789062 139.652344 L 300.914062 139.652344 L 300.914062 141.714844 L 309.707031 141.714844 L 309.707031 139.632812 L 308.832031 139.632812 L 308.832031 140.945312 L 305.789062 140.945312 L 305.789062 139.257812 Z M 306.519531 142.050781 C 306.332031 143.632812 305.875 144.882812 305.1875 145.757812 L 305.851562 146.214844 C 306.289062 145.675781 306.644531 144.964844 306.894531 144.113281 L 309.4375 144.113281 C 309.289062 144.777344 309.082031 145.382812 308.851562 145.925781 L 309.601562 146.132812 C 309.875 145.402344 310.101562 144.632812 310.289062 143.863281 L 310.289062 143.339844 L 307.101562 143.339844 C 307.1875 142.988281 307.269531 142.589844 307.332031 142.175781 Z M 307.394531 144.714844 C 307.394531 145.820312 307.269531 146.738281 307.019531 147.445312 C 306.6875 148.277344 306 148.988281 304.957031 149.550781 L 305.476562 150.214844 C 306.6875 149.527344 307.476562 148.675781 307.8125 147.632812 L 307.832031 147.550781 C 308.394531 148.613281 309.25 149.507812 310.351562 150.214844 L 310.894531 149.570312 C 309.5625 148.800781 308.625 147.757812 308.0625 146.445312 C 308.144531 145.902344 308.1875 145.339844 308.1875 144.714844 Z M 307.394531 144.714844 "/>
<path style=" stroke:none;fill-rule:nonzero;fill:rgb(0%,0%,0%);fill-opacity:1;" d="M 316.8125 141.988281 C 316.039062 145.175781 314.375 147.632812 311.789062 149.300781 L 312.3125 150.050781 C 314.832031 148.402344 316.5 146.050781 317.289062 142.988281 C 317.351562 143.132812 317.394531 143.300781 317.476562 143.507812 C 318.707031 146.675781 320.289062 148.863281 322.25 150.027344 L 322.789062 149.339844 C 320.875 148.152344 319.375 146.113281 318.25 143.257812 C 317.519531 141.300781 316.601562 139.945312 315.539062 139.195312 L 314.832031 139.652344 C 315.582031 140.214844 316.25 140.988281 316.8125 141.988281 Z M 316.8125 141.988281 "/>
<path style=" stroke:none;fill-rule:nonzero;fill:rgb(0%,0%,0%);fill-opacity:1;" d="M 327.226562 143.800781 L 327.226562 144.570312 L 333.726562 144.570312 L 333.726562 143.800781 Z M 326.375 145.757812 L 326.375 146.550781 L 329 146.550781 C 328.164062 147.902344 327.457031 148.738281 326.9375 149.050781 C 326.875 149.070312 326.832031 149.113281 326.75 149.132812 L 326.9375 149.863281 C 329.207031 149.714844 331.289062 149.507812 333.1875 149.257812 C 333.4375 149.550781 333.644531 149.863281 333.851562 150.175781 L 334.539062 149.695312 C 334.019531 148.925781 333.25 148.007812 332.269531 146.964844 L 331.625 147.363281 C 331.976562 147.777344 332.332031 148.175781 332.664062 148.570312 C 331.125 148.800781 329.5625 148.964844 327.976562 149.070312 C 328.539062 148.570312 329.1875 147.714844 329.914062 146.550781 L 334.519531 146.550781 L 334.519531 145.757812 Z M 333.0625 140.488281 L 333.0625 141.882812 L 326 141.882812 L 326 140.488281 Z M 326 142.652344 L 333.894531 142.652344 L 333.894531 139.675781 L 325.164062 139.675781 L 325.164062 143.652344 C 325.144531 146.070312 324.726562 148.027344 323.894531 149.550781 L 324.519531 150.132812 C 325.5 148.320312 326 146.152344 326 143.652344 Z M 326 142.652344 "/>
<path style=" stroke:none;fill-rule:nonzero;fill:rgb(0%,0%,0%);fill-opacity:1;" d="M 315.375 179.589844 L 307.3125 179.589844 L 307.3125 190.007812 L 308.1875 190.007812 L 308.1875 189.214844 L 314.5 189.214844 L 314.5 189.988281 L 315.375 189.988281 Z M 308.1875 188.363281 L 308.1875 186.113281 L 314.5 186.113281 L 314.5 188.363281 Z M 308.1875 185.320312 L 308.1875 183.214844 L 314.5 183.214844 L 314.5 185.320312 Z M 308.1875 182.425781 L 308.1875 180.425781 L 314.5 180.425781 L 314.5 182.425781 Z M 308.1875 182.425781 "/>
<path style=" stroke:none;fill-rule:nonzero;fill:rgb(0%,0%,0%);fill-opacity:1;" d="M 319.625 179.027344 L 319.625 181.300781 L 318.164062 181.300781 L 318.164062 182.132812 L 319.625 182.132812 C 319.25 183.632812 318.644531 184.988281 317.769531 186.175781 L 318.144531 187.113281 C 318.75 186.175781 319.25 185.132812 319.625 184.007812 L 319.625 189.988281 L 320.476562 189.988281 L 320.476562 183.964844 C 320.832031 184.425781 321.25 185.027344 321.75 185.777344 L 322.25 185.050781 C 321.644531 184.320312 321.0625 183.652344 320.476562 183.050781 L 320.476562 182.132812 L 321.875 182.132812 L 321.875 181.300781 L 320.476562 181.300781 L 320.476562 179.027344 Z M 323.164062 184.445312 C 322.832031 185.945312 322.289062 187.277344 321.539062 188.507812 L 322.289062 188.988281 C 323 187.757812 323.582031 186.320312 323.957031 184.632812 Z M 327.5 184.402344 L 326.726562 184.652344 C 327.1875 185.945312 327.625 187.425781 328.019531 189.089844 L 328.8125 188.738281 C 328.4375 187.195312 328.019531 185.757812 327.5 184.402344 Z M 324.8125 189.863281 C 325.519531 189.863281 325.875 189.507812 325.875 188.800781 L 325.875 183.464844 L 328.8125 183.464844 L 328.8125 182.632812 L 322.082031 182.632812 L 322.082031 183.464844 L 325.019531 183.464844 L 325.019531 188.589844 C 325.019531 188.925781 324.851562 189.113281 324.519531 189.113281 C 324.164062 189.113281 323.8125 189.089844 323.4375 189.070312 L 323.601562 189.863281 Z M 322.726562 179.714844 L 322.726562 180.527344 L 328.1875 180.527344 L 328.1875 179.714844 Z M 322.726562 179.714844 "/>
<path style="fill:none;stroke-width:1;stroke-linecap:round;stroke-linejoin:round;stroke:rgb(0%,0%,0%);stroke-opacity:1;stroke-miterlimit:10;" d="M 682.999023 301.600586 L 682.999023 295.155273 " transform="matrix(1.333333,0,0,1.333333,-593.333333,-229.333333)"/>
<path style="fill:none;stroke-width:1;stroke-linecap:butt;stroke-linejoin:miter;stroke:rgb(0%,0%,0%);stroke-opacity:1;stroke-miterlimit:10;" d="M 682.999023 291.15625 L 682.999023 295.155273 M 681.499023 295.155273 L 682.999023 291.15625 L 684.499023 295.155273 " transform="matrix(1.333333,0,0,1.333333,-593.333333,-229.333333)"/>
<path style="fill:none;stroke-width:1;stroke-linecap:round;stroke-linejoin:round;stroke:rgb(0%,0%,0%);stroke-opacity:1;stroke-miterlimit:10;" d="M 644.198242 200.397461 L 721.799805 200.397461 L 721.799805 218.397461 L 644.198242 218.397461 Z M 644.198242 200.397461 " transform="matrix(1.333333,0,0,1.333333,-593.333333,-229.333333)"/>
<path style=" stroke:none;fill-rule:nonzero;fill:rgb(0%,0%,0%);fill-opacity:1;" d="M 299.019531 44.761719 C 297.625 46.285156 295.875 47.554688 293.769531 48.574219 L 294.1875 49.324219 C 296.3125 48.261719 298.019531 46.992188 299.332031 45.554688 C 300.75 47.074219 302.4375 48.304688 304.4375 49.261719 L 304.875 48.492188 C 302.894531 47.574219 301.164062 46.347656 299.644531 44.761719 Z M 295.976562 48.554688 L 295.976562 49.386719 L 298.894531 49.386719 L 298.894531 51.472656 L 295.414062 51.472656 L 295.414062 52.304688 L 298.894531 52.304688 L 298.894531 54.511719 L 294.332031 54.511719 L 294.332031 55.367188 L 304.332031 55.367188 L 304.332031 54.511719 L 299.769531 54.511719 L 299.769531 52.304688 L 303.25 52.304688 L 303.25 51.472656 L 299.769531 51.472656 L 299.769531 49.386719 L 302.6875 49.386719 L 302.6875 48.554688 Z M 295.976562 48.554688 "/>
<path style=" stroke:none;fill-rule:nonzero;fill:rgb(0%,0%,0%);fill-opacity:1;" d="M 306.875 44.929688 L 306.289062 45.492188 C 307.125 46.179688 307.8125 46.804688 308.289062 47.386719 L 308.914062 46.785156 C 308.351562 46.160156 307.664062 45.554688 306.875 44.929688 Z M 313.832031 55.511719 L 316.582031 55.511719 L 316.789062 54.660156 C 316.476562 54.679688 316.019531 54.679688 315.457031 54.699219 C 314.851562 54.722656 314.289062 54.722656 313.726562 54.722656 C 312.789062 54.722656 312.019531 54.722656 311.394531 54.699219 C 310.6875 54.679688 310.164062 54.574219 309.789062 54.410156 C 309.457031 54.261719 309.164062 54.011719 308.875 53.660156 C 308.769531 53.554688 308.6875 53.449219 308.582031 53.386719 L 308.582031 48.886719 L 306.0625 48.886719 L 306.0625 49.679688 L 307.789062 49.679688 L 307.789062 53.324219 C 307.289062 53.554688 306.726562 54.160156 306.082031 55.179688 L 306.726562 55.761719 C 307.394531 54.660156 307.875 54.097656 308.144531 54.097656 C 308.289062 54.097656 308.457031 54.199219 308.601562 54.410156 C 308.976562 54.824219 309.394531 55.136719 309.875 55.285156 C 310.351562 55.410156 310.957031 55.492188 311.726562 55.492188 C 312.476562 55.511719 313.1875 55.511719 313.832031 55.511719 Z M 309.414062 45.972656 L 309.414062 46.761719 L 311 46.761719 C 310.601562 47.617188 310.164062 48.347656 309.6875 48.910156 L 309.875 49.699219 L 312.644531 49.699219 L 312.644531 51.136719 L 309.3125 51.136719 L 309.3125 51.949219 L 312.644531 51.949219 L 312.644531 54.179688 L 313.476562 54.179688 L 313.476562 51.949219 L 316.601562 51.949219 L 316.601562 51.136719 L 313.476562 51.136719 L 313.476562 49.699219 L 316.082031 49.699219 L 316.082031 48.910156 L 313.476562 48.910156 L 313.476562 47.492188 L 312.644531 47.492188 L 312.644531 48.910156 L 310.707031 48.910156 C 311.144531 48.285156 311.539062 47.574219 311.914062 46.761719 L 316.457031 46.761719 L 316.457031 45.972656 L 312.25 45.972656 C 312.394531 45.597656 312.519531 45.242188 312.644531 44.847656 L 311.832031 44.636719 C 311.6875 45.097656 311.519531 45.554688 311.351562 45.972656 Z M 309.414062 45.972656 "/>
<path style=" stroke:none;fill-rule:nonzero;fill:rgb(0%,0%,0%);fill-opacity:1;" d="M 323.6875 46.761719 L 322.976562 47.097656 C 323.226562 47.535156 323.457031 48.011719 323.707031 48.535156 L 321.875 48.535156 L 321.875 49.367188 L 328.5625 49.367188 L 328.5625 48.535156 L 326.625 48.535156 C 326.894531 48.054688 327.144531 47.511719 327.375 46.910156 L 326.5625 46.617188 C 326.3125 47.304688 326.039062 47.929688 325.707031 48.535156 L 324.539062 48.535156 C 324.269531 47.886719 324 47.304688 323.6875 46.761719 Z M 325.269531 44.660156 L 324.375 44.804688 C 324.5 45.097656 324.644531 45.429688 324.789062 45.804688 L 322.144531 45.804688 L 322.144531 46.597656 L 328.351562 46.597656 L 328.351562 45.804688 L 325.664062 45.804688 C 325.519531 45.386719 325.394531 44.992188 325.269531 44.660156 Z M 319.269531 55.617188 C 319.976562 55.617188 320.351562 55.285156 320.351562 54.574219 L 320.351562 51.035156 C 320.6875 50.867188 321.019531 50.699219 321.351562 50.535156 L 321.351562 49.660156 C 321.019531 49.824219 320.6875 49.992188 320.351562 50.160156 L 320.351562 47.867188 L 321.332031 47.867188 L 321.332031 47.035156 L 320.351562 47.035156 L 320.351562 44.761719 L 319.457031 44.761719 L 319.457031 47.035156 L 318 47.035156 L 318 47.867188 L 319.457031 47.867188 L 319.457031 50.535156 C 318.894531 50.761719 318.332031 50.929688 317.769531 51.074219 L 318 51.949219 C 318.476562 51.785156 318.976562 51.597656 319.457031 51.410156 L 319.457031 54.367188 C 319.457031 54.679688 319.289062 54.824219 318.976562 54.824219 C 318.6875 54.824219 318.375 54.804688 318.0625 54.785156 L 318.226562 55.617188 Z M 324.207031 49.699219 C 324.082031 50.035156 323.9375 50.367188 323.769531 50.722656 L 321.707031 50.722656 L 321.707031 51.574219 L 323.3125 51.574219 C 323.0625 52.035156 322.789062 52.492188 322.457031 52.992188 C 323.289062 53.324219 324.082031 53.636719 324.8125 53.992188 C 324.0625 54.410156 322.976562 54.742188 321.582031 54.992188 L 321.9375 55.785156 C 323.664062 55.449219 324.914062 54.972656 325.707031 54.410156 C 326.664062 54.867188 327.5 55.304688 328.207031 55.742188 L 328.6875 55.054688 C 327.9375 54.617188 327.144531 54.199219 326.3125 53.824219 C 326.875 53.222656 327.25 52.449219 327.4375 51.574219 L 328.75 51.574219 L 328.75 50.722656 L 324.644531 50.722656 C 324.789062 50.429688 324.914062 50.117188 325.039062 49.785156 Z M 326.625 51.574219 C 326.4375 52.347656 326.0625 52.972656 325.519531 53.472656 C 324.875 53.179688 324.207031 52.910156 323.519531 52.636719 C 323.75 52.304688 323.976562 51.949219 324.1875 51.574219 Z M 326.625 51.574219 "/>
<path style=" stroke:none;fill-rule:nonzero;fill:rgb(0%,0%,0%);fill-opacity:1;" d="M 333.226562 49.324219 L 333.226562 50.097656 L 339.726562 50.097656 L 339.726562 49.324219 Z M 332.375 51.285156 L 332.375 52.074219 L 335 52.074219 C 334.164062 53.429688 333.457031 54.261719 332.9375 54.574219 C 332.875 54.597656 332.832031 54.636719 332.75 54.660156 L 332.9375 55.386719 C 335.207031 55.242188 337.289062 55.035156 339.1875 54.785156 C 339.4375 55.074219 339.644531 55.386719 339.851562 55.699219 L 340.539062 55.222656 C 340.019531 54.449219 339.25 53.535156 338.269531 52.492188 L 337.625 52.886719 C 337.976562 53.304688 338.332031 53.699219 338.664062 54.097656 C 337.125 54.324219 335.5625 54.492188 333.976562 54.597656 C 334.539062 54.097656 335.1875 53.242188 335.914062 52.074219 L 340.519531 52.074219 L 340.519531 51.285156 Z M 339.0625 46.011719 L 339.0625 47.410156 L 332 47.410156 L 332 46.011719 Z M 332 48.179688 L 339.894531 48.179688 L 339.894531 45.199219 L 331.164062 45.199219 L 331.164062 49.179688 C 331.144531 51.597656 330.726562 53.554688 329.894531 55.074219 L 330.519531 55.660156 C 331.5 53.847656 332 51.679688 332 49.179688 Z M 332 48.179688 "/>
<path style=" stroke:none;fill-rule:nonzero;fill:rgb(0%,0%,0%);fill-opacity:1;" d="M 72.558594 19.488281 C 71.703125 19.925781 70.703125 20.257812 69.578125 20.507812 L 69.683594 21.363281 C 70.765625 21.089844 71.726562 20.738281 72.558594 20.300781 Z M 71.328125 11.007812 C 70.890625 12.402344 70.371094 13.632812 69.765625 14.714844 C 69.683594 14.863281 69.558594 14.964844 69.433594 15.027344 L 69.640625 15.800781 C 70.289062 15.695312 70.914062 15.589844 71.558594 15.464844 C 70.933594 16.570312 70.414062 17.339844 69.996094 17.800781 C 69.890625 17.902344 69.746094 17.988281 69.601562 18.050781 L 69.828125 18.820312 C 70.808594 18.675781 71.828125 18.425781 72.914062 18.070312 L 72.914062 17.300781 C 72.226562 17.550781 71.539062 17.738281 70.851562 17.882812 C 71.496094 17.070312 72.328125 15.695312 73.328125 13.757812 L 72.578125 13.464844 C 72.371094 13.902344 72.140625 14.320312 71.953125 14.695312 C 71.453125 14.800781 70.933594 14.882812 70.414062 14.964844 C 70.996094 14.070312 71.578125 12.839844 72.140625 11.320312 Z M 79.183594 22.007812 C 79.726562 22.007812 79.996094 21.714844 79.996094 21.175781 L 79.996094 16.339844 L 74.515625 16.339844 L 74.515625 22.050781 L 75.226562 22.050781 L 75.226562 19.382812 L 76.164062 19.382812 L 76.164062 21.839844 L 76.808594 21.839844 L 76.808594 19.382812 L 77.683594 19.382812 L 77.683594 21.839844 L 78.308594 21.839844 L 78.308594 19.382812 L 79.289062 19.382812 L 79.289062 20.988281 C 79.289062 21.238281 79.164062 21.363281 78.953125 21.363281 L 78.476562 21.339844 L 78.664062 22.007812 Z M 75.226562 18.652344 L 75.226562 17.089844 L 76.164062 17.089844 L 76.164062 18.652344 Z M 76.808594 17.089844 L 77.683594 17.089844 L 77.683594 18.652344 L 76.808594 18.652344 Z M 78.308594 17.089844 L 79.289062 17.089844 L 79.289062 18.652344 L 78.308594 18.652344 Z M 79.164062 13.007812 L 79.164062 14.550781 L 74.476562 14.550781 L 74.476562 13.007812 Z M 74.476562 15.300781 L 79.953125 15.300781 L 79.953125 12.257812 L 77.246094 12.257812 C 77.101562 11.777344 76.953125 11.339844 76.789062 10.988281 L 75.890625 11.113281 C 76.078125 11.464844 76.246094 11.839844 76.414062 12.257812 L 73.683594 12.257812 L 73.683594 15.175781 C 73.664062 17.738281 73.183594 19.839844 72.226562 21.488281 L 72.851562 22.027344 C 73.890625 20.152344 74.433594 17.902344 74.476562 15.300781 Z M 74.476562 15.300781 "/>
<path style=" stroke:none;fill-rule:nonzero;fill:rgb(0%,0%,0%);fill-opacity:1;" d="M 85.476562 15.257812 L 83.265625 15.257812 C 83.578125 14.402344 83.808594 13.507812 83.976562 12.550781 L 85.789062 12.550781 L 85.789062 11.714844 L 81.683594 11.714844 L 81.683594 12.550781 L 83.164062 12.550781 C 82.871094 14.339844 82.265625 15.925781 81.351562 17.320312 L 81.789062 18.027344 C 82.078125 17.613281 82.328125 17.195312 82.578125 16.757812 L 82.578125 21.652344 L 83.390625 21.652344 L 83.390625 20.738281 L 84.683594 20.738281 L 84.683594 21.425781 L 85.476562 21.425781 Z M 83.390625 19.945312 L 83.390625 16.050781 L 84.683594 16.050781 L 84.683594 19.945312 Z M 87.078125 13.195312 L 86.433594 17.089844 L 91.289062 17.089844 C 91.289062 19.007812 91.183594 20.175781 90.996094 20.570312 C 90.828125 20.964844 90.265625 21.175781 89.351562 21.175781 C 89.121094 21.175781 88.765625 21.132812 88.226562 21.089844 L 88.476562 21.925781 C 88.851562 21.964844 89.203125 21.964844 89.558594 21.964844 C 90.601562 21.964844 91.289062 21.738281 91.621094 21.300781 C 91.933594 20.863281 92.101562 19.195312 92.101562 16.277344 L 90.828125 16.277344 L 91.496094 11.550781 L 86.328125 11.550781 L 86.328125 12.363281 L 90.558594 12.363281 L 89.953125 16.277344 L 87.414062 16.277344 L 87.933594 13.257812 Z M 86.078125 18.613281 L 86.078125 19.425781 L 90.453125 19.425781 L 90.453125 18.613281 Z M 86.078125 18.613281 "/>
<path style=" stroke:none;fill-rule:nonzero;fill:rgb(0%,0%,0%);fill-opacity:1;" d="M 94.621094 11.488281 L 94.621094 14.402344 L 98.265625 14.402344 L 98.265625 11.488281 Z M 97.476562 13.675781 L 95.390625 13.675781 L 95.390625 12.238281 L 97.476562 12.238281 Z M 99.601562 11.488281 L 99.601562 14.402344 L 103.328125 14.402344 L 103.328125 11.488281 Z M 102.558594 13.675781 L 100.390625 13.675781 L 100.390625 12.238281 L 102.558594 12.238281 Z M 93.640625 15.613281 L 93.640625 16.382812 L 96.953125 16.382812 C 96.121094 17.089844 94.933594 17.695312 93.390625 18.132812 L 93.789062 18.839844 C 94.140625 18.738281 94.453125 18.632812 94.789062 18.507812 L 94.789062 22.050781 L 95.539062 22.050781 L 95.539062 21.527344 L 97.578125 21.527344 L 97.578125 22.050781 L 98.351562 22.050781 L 98.351562 18.277344 L 95.351562 18.277344 C 96.476562 17.777344 97.371094 17.152344 98.039062 16.382812 L 100.078125 16.382812 C 100.683594 17.113281 101.558594 17.738281 102.703125 18.277344 L 99.515625 18.277344 L 99.515625 22.050781 L 100.289062 22.050781 L 100.289062 21.527344 L 102.515625 21.527344 L 102.515625 22.050781 L 103.289062 22.050781 L 103.289062 18.527344 C 103.558594 18.613281 103.828125 18.738281 104.121094 18.820312 L 104.476562 18.089844 C 102.933594 17.675781 101.765625 17.089844 100.976562 16.382812 L 104.226562 16.382812 L 104.226562 15.613281 L 102.578125 15.613281 C 102.371094 15.238281 102.164062 14.882812 101.914062 14.550781 L 101.183594 14.800781 C 101.371094 15.027344 101.558594 15.300781 101.726562 15.613281 L 98.621094 15.613281 C 98.789062 15.320312 98.953125 15.027344 99.058594 14.714844 L 98.246094 14.632812 C 98.101562 14.964844 97.914062 15.300781 97.683594 15.613281 Z M 95.539062 20.800781 L 95.539062 18.988281 L 97.578125 18.988281 L 97.578125 20.800781 Z M 100.289062 20.800781 L 100.289062 18.988281 L 102.515625 18.988281 L 102.515625 20.800781 Z M 100.289062 20.800781 "/>
<path style=" stroke:none;fill-rule:nonzero;fill:rgb(40.000001%,74.901962%,100%);fill-opacity:1;" d="M 150.402344 156.339844 L 253.871094 156.339844 L 253.871094 132.339844 L 150.402344 132.339844 Z M 150.402344 156.339844 "/>
<path style="fill:none;stroke-width:1;stroke-linecap:round;stroke-linejoin:round;stroke:rgb(0%,0%,0%);stroke-opacity:1;stroke-miterlimit:10;" d="M 557.801758 271.254883 L 635.40332 271.254883 L 635.40332 289.254883 L 557.801758 289.254883 Z M 557.801758 271.254883 " transform="matrix(1.333333,0,0,1.333333,-593.333333,-229.333333)"/>
<path style=" stroke:none;fill-rule:nonzero;fill:rgb(0%,0%,0%);fill-opacity:1;" d="M 185.695312 139.382812 L 185.09375 139.988281 C 185.96875 140.613281 186.675781 141.214844 187.175781 141.777344 L 187.800781 141.152344 C 187.238281 140.570312 186.53125 139.988281 185.695312 139.382812 Z M 185.40625 142.214844 L 184.800781 142.800781 C 185.632812 143.445312 186.300781 144.050781 186.78125 144.613281 L 187.382812 143.988281 C 186.863281 143.382812 186.195312 142.800781 185.40625 142.214844 Z M 186.925781 145.527344 C 186.382812 146.964844 185.738281 148.363281 185.03125 149.738281 L 185.882812 150.113281 C 186.550781 148.777344 187.15625 147.363281 187.675781 145.839844 Z M 188.257812 141.238281 L 188.257812 142.089844 L 191.382812 142.089844 L 191.382812 144.964844 L 188.59375 144.964844 L 188.59375 145.800781 L 191.382812 145.800781 L 191.382812 148.945312 L 187.96875 148.945312 L 187.96875 149.800781 L 195.59375 149.800781 L 195.59375 148.945312 L 192.257812 148.945312 L 192.257812 145.800781 L 195.03125 145.800781 L 195.03125 144.964844 L 192.257812 144.964844 L 192.257812 142.089844 L 195.363281 142.089844 L 195.363281 141.238281 L 191.78125 141.238281 L 192.28125 141.050781 C 192.09375 140.464844 191.820312 139.839844 191.488281 139.152344 L 190.675781 139.363281 C 190.988281 139.964844 191.257812 140.589844 191.488281 141.238281 Z M 188.257812 141.238281 "/>
<path style=" stroke:none;fill-rule:nonzero;fill:rgb(0%,0%,0%);fill-opacity:1;" d="M 199.425781 140.675781 L 199.800781 141.632812 L 196.925781 141.632812 L 196.925781 142.382812 L 207.34375 142.382812 L 207.34375 141.632812 L 204.363281 141.632812 L 204.820312 140.675781 L 206.78125 140.675781 L 206.78125 139.945312 L 202.550781 139.945312 C 202.425781 139.632812 202.300781 139.339844 202.175781 139.089844 L 201.257812 139.238281 C 201.382812 139.445312 201.488281 139.675781 201.613281 139.945312 L 197.488281 139.945312 L 197.488281 140.675781 Z M 200.695312 141.632812 L 200.320312 140.675781 L 203.925781 140.675781 L 203.445312 141.632812 Z M 198.300781 143.089844 L 198.300781 146.652344 L 205.96875 146.652344 L 205.96875 143.089844 Z M 205.132812 145.964844 L 199.132812 145.964844 L 199.132812 145.175781 L 205.132812 145.175781 Z M 199.132812 144.550781 L 199.132812 143.777344 L 205.132812 143.777344 L 205.132812 144.550781 Z M 197.820312 147.214844 C 197.59375 148.007812 197.21875 148.738281 196.738281 149.382812 L 197.488281 149.863281 C 197.988281 149.152344 198.363281 148.339844 198.65625 147.382812 Z M 203.78125 150.007812 C 204.238281 150.007812 204.550781 149.925781 204.78125 149.777344 C 205.007812 149.589844 205.175781 149.089844 205.257812 148.257812 L 204.445312 148.007812 C 204.40625 148.589844 204.300781 148.964844 204.15625 149.089844 C 204.070312 149.195312 203.882812 149.238281 203.613281 149.238281 L 201.09375 149.238281 C 200.71875 149.238281 200.53125 149.050781 200.53125 148.714844 L 200.53125 147.320312 L 199.632812 147.320312 L 199.632812 148.902344 C 199.632812 149.652344 200.03125 150.007812 200.84375 150.007812 Z M 202.257812 146.863281 L 201.53125 147.320312 C 202.03125 147.839844 202.425781 148.300781 202.71875 148.738281 L 203.425781 148.238281 C 203.175781 147.839844 202.78125 147.382812 202.257812 146.863281 Z M 206.03125 147.089844 L 205.34375 147.527344 C 205.988281 148.320312 206.488281 149.050781 206.882812 149.695312 L 207.59375 149.195312 C 207.238281 148.589844 206.695312 147.902344 206.03125 147.089844 Z M 206.03125 147.089844 "/>
<path style=" stroke:none;fill-rule:nonzero;fill:rgb(0%,0%,0%);fill-opacity:1;" d="M 213.132812 139.238281 L 213.132812 140.445312 C 213.132812 140.839844 213.113281 141.257812 213.09375 141.652344 L 209.53125 141.652344 L 209.53125 142.507812 L 213.007812 142.507812 C 212.882812 143.902344 212.613281 145.113281 212.21875 146.113281 C 211.59375 147.488281 210.488281 148.632812 208.90625 149.464844 L 209.382812 150.195312 C 210.988281 149.382812 212.132812 148.238281 212.863281 146.777344 C 213.382812 145.632812 213.71875 144.214844 213.90625 142.507812 L 217.695312 142.507812 C 217.632812 145.339844 217.488281 147.195312 217.257812 148.070312 C 217.050781 148.902344 216.613281 149.320312 215.925781 149.320312 C 215.488281 149.320312 215.03125 149.300781 214.550781 149.277344 L 214.78125 150.132812 L 216.363281 150.132812 C 216.988281 150.070312 217.425781 149.820312 217.71875 149.339844 C 218.007812 148.839844 218.21875 147.945312 218.34375 146.695312 C 218.445312 145.402344 218.53125 143.738281 218.570312 141.652344 L 213.988281 141.652344 C 214.007812 141.257812 214.007812 140.863281 214.03125 140.445312 L 214.03125 139.238281 Z M 213.132812 139.238281 "/>
<path style=" stroke:none;fill-rule:nonzero;fill:rgb(69.803923%,85.09804%,100%);fill-opacity:1;" d="M 35.199219 109.332031 L 138.667969 109.332031 L 138.667969 85.332031 L 35.199219 85.332031 Z M 35.199219 109.332031 "/>
<path style="fill:none;stroke-width:1;stroke-linecap:round;stroke-linejoin:round;stroke:rgb(0%,0%,0%);stroke-opacity:1;stroke-miterlimit:10;" d="M 471.399414 235.999023 L 549.000977 235.999023 L 549.000977 253.999023 L 471.399414 253.999023 Z M 471.399414 235.999023 " transform="matrix(1.333333,0,0,1.333333,-593.333333,-229.333333)"/>
<path style=" stroke:none;fill-rule:nonzero;fill:rgb(0%,0%,0%);fill-opacity:1;" d="M 79.539062 92.3125 C 77.703125 92.730469 75.640625 92.957031 73.371094 92.980469 L 73.371094 97.625 C 73.308594 99.730469 72.953125 101.355469 72.289062 102.542969 L 72.890625 103.1875 C 73.703125 101.792969 74.121094 99.957031 74.183594 97.625 L 74.183594 95.457031 L 76.933594 95.457031 L 76.828125 96.5625 L 74.914062 96.5625 L 74.914062 103.1875 L 75.726562 103.1875 L 75.726562 102.4375 L 78.933594 102.4375 L 78.933594 103.207031 L 79.746094 103.207031 L 79.746094 96.5625 L 77.664062 96.5625 C 77.703125 96.207031 77.746094 95.855469 77.789062 95.457031 L 80.246094 95.457031 L 80.246094 94.6875 L 77.851562 94.6875 L 77.890625 93.832031 L 77.039062 93.707031 L 76.996094 94.6875 L 74.183594 94.6875 L 74.183594 93.6875 C 76.308594 93.644531 78.226562 93.417969 79.953125 93.042969 Z M 75.726562 101.707031 L 75.726562 100.644531 L 78.933594 100.644531 L 78.933594 101.707031 Z M 75.726562 99.980469 L 75.726562 98.957031 L 78.933594 98.957031 L 78.933594 99.980469 Z M 75.726562 98.292969 L 75.726562 97.292969 L 78.933594 97.292969 L 78.933594 98.292969 Z M 71.914062 92.355469 C 71.433594 93.457031 70.640625 94.4375 69.578125 95.292969 L 69.828125 96.144531 C 71.140625 95.144531 72.078125 94 72.664062 92.707031 Z M 72.140625 95.375 C 71.578125 96.542969 70.683594 97.605469 69.433594 98.519531 L 69.683594 99.355469 C 70.101562 99.042969 70.496094 98.730469 70.871094 98.394531 L 70.871094 103.144531 L 71.703125 103.144531 L 71.703125 97.542969 C 72.183594 96.980469 72.578125 96.375 72.890625 95.730469 Z M 72.140625 95.375 "/>
<path style=" stroke:none;fill-rule:nonzero;fill:rgb(0%,0%,0%);fill-opacity:1;" d="M 90.164062 96.042969 L 89.496094 96.457031 C 90.476562 97.6875 91.246094 98.792969 91.828125 99.792969 L 92.558594 99.292969 C 91.996094 98.355469 91.183594 97.292969 90.164062 96.042969 Z M 81.765625 96.5625 L 81.765625 97.394531 L 83.101562 97.394531 L 83.101562 100.480469 C 82.539062 100.625 81.996094 100.75 81.433594 100.832031 L 81.640625 101.667969 C 83.039062 101.355469 84.328125 100.957031 85.539062 100.5 L 85.539062 99.667969 C 85.015625 99.875 84.476562 100.0625 83.933594 100.230469 L 83.933594 97.394531 L 85.308594 97.394531 L 85.308594 96.5625 L 83.933594 96.5625 L 83.933594 93.980469 L 85.476562 93.980469 L 85.476562 93.125 L 81.578125 93.125 L 81.578125 93.980469 L 83.101562 93.980469 L 83.101562 96.5625 Z M 85.953125 92.792969 L 85.953125 93.625 L 89.039062 93.625 C 88.351562 95.8125 87.140625 97.6875 85.390625 99.25 L 85.914062 99.917969 C 86.953125 99 87.808594 97.957031 88.496094 96.792969 L 88.496094 103.1875 L 89.351562 103.1875 L 89.351562 95.144531 C 89.558594 94.644531 89.726562 94.144531 89.890625 93.625 L 92.039062 93.625 L 92.039062 92.792969 Z M 85.953125 92.792969 "/>
<path style=" stroke:none;fill-rule:nonzero;fill:rgb(0%,0%,0%);fill-opacity:1;" d="M 96.828125 96.792969 L 96.828125 97.5625 L 103.328125 97.5625 L 103.328125 96.792969 Z M 95.976562 98.75 L 95.976562 99.542969 L 98.601562 99.542969 C 97.765625 100.894531 97.058594 101.730469 96.539062 102.042969 C 96.476562 102.0625 96.433594 102.105469 96.351562 102.125 L 96.539062 102.855469 C 98.808594 102.707031 100.890625 102.5 102.789062 102.25 C 103.039062 102.542969 103.246094 102.855469 103.453125 103.167969 L 104.140625 102.6875 C 103.621094 101.917969 102.851562 101 101.871094 99.957031 L 101.226562 100.355469 C 101.578125 100.769531 101.933594 101.167969 102.265625 101.5625 C 100.726562 101.792969 99.164062 101.957031 97.578125 102.0625 C 98.140625 101.5625 98.789062 100.707031 99.515625 99.542969 L 104.121094 99.542969 L 104.121094 98.75 Z M 102.664062 93.480469 L 102.664062 94.875 L 95.601562 94.875 L 95.601562 93.480469 Z M 95.601562 95.644531 L 103.496094 95.644531 L 103.496094 92.667969 L 94.765625 92.667969 L 94.765625 96.644531 C 94.746094 99.0625 94.328125 101.019531 93.496094 102.542969 L 94.121094 103.125 C 95.101562 101.3125 95.601562 99.144531 95.601562 96.644531 Z M 95.601562 95.644531 "/>
<path style=" stroke:none;fill-rule:nonzero;fill:rgb(69.803923%,85.09804%,100%);fill-opacity:1;" d="M 265.597656 109.105469 L 369.066406 109.105469 L 369.066406 85.105469 L 265.597656 85.105469 Z M 265.597656 109.105469 "/>
<path style="fill:none;stroke-width:1;stroke-linecap:round;stroke-linejoin:round;stroke:rgb(0%,0%,0%);stroke-opacity:1;stroke-miterlimit:10;" d="M 644.198242 235.829102 L 721.799805 235.829102 L 721.799805 253.829102 L 644.198242 253.829102 Z M 644.198242 235.829102 " transform="matrix(1.333333,0,0,1.333333,-593.333333,-229.333333)"/>
<path style=" stroke:none;fill-rule:nonzero;fill:rgb(0%,0%,0%);fill-opacity:1;" d="M 309.9375 92.082031 C 308.101562 92.5 306.039062 92.730469 303.769531 92.75 L 303.769531 97.394531 C 303.707031 99.5 303.351562 101.125 302.6875 102.3125 L 303.289062 102.957031 C 304.101562 101.5625 304.519531 99.730469 304.582031 97.394531 L 304.582031 95.230469 L 307.332031 95.230469 L 307.226562 96.332031 L 305.3125 96.332031 L 305.3125 102.957031 L 306.125 102.957031 L 306.125 102.207031 L 309.332031 102.207031 L 309.332031 102.980469 L 310.144531 102.980469 L 310.144531 96.332031 L 308.0625 96.332031 C 308.101562 95.980469 308.144531 95.625 308.1875 95.230469 L 310.644531 95.230469 L 310.644531 94.457031 L 308.25 94.457031 L 308.289062 93.605469 L 307.4375 93.480469 L 307.394531 94.457031 L 304.582031 94.457031 L 304.582031 93.457031 C 306.707031 93.417969 308.625 93.1875 310.351562 92.8125 Z M 306.125 101.480469 L 306.125 100.417969 L 309.332031 100.417969 L 309.332031 101.480469 Z M 306.125 99.75 L 306.125 98.730469 L 309.332031 98.730469 L 309.332031 99.75 Z M 306.125 98.0625 L 306.125 97.0625 L 309.332031 97.0625 L 309.332031 98.0625 Z M 302.3125 92.125 C 301.832031 93.230469 301.039062 94.207031 299.976562 95.0625 L 300.226562 95.917969 C 301.539062 94.917969 302.476562 93.769531 303.0625 92.480469 Z M 302.539062 95.144531 C 301.976562 96.3125 301.082031 97.375 299.832031 98.292969 L 300.082031 99.125 C 300.5 98.8125 300.894531 98.5 301.269531 98.167969 L 301.269531 102.917969 L 302.101562 102.917969 L 302.101562 97.3125 C 302.582031 96.75 302.976562 96.144531 303.289062 95.5 Z M 302.539062 95.144531 "/>
<path style=" stroke:none;fill-rule:nonzero;fill:rgb(0%,0%,0%);fill-opacity:1;" d="M 320.5625 95.8125 L 319.894531 96.230469 C 320.875 97.457031 321.644531 98.5625 322.226562 99.5625 L 322.957031 99.0625 C 322.394531 98.125 321.582031 97.0625 320.5625 95.8125 Z M 312.164062 96.332031 L 312.164062 97.167969 L 313.5 97.167969 L 313.5 100.25 C 312.9375 100.394531 312.394531 100.519531 311.832031 100.605469 L 312.039062 101.4375 C 313.4375 101.125 314.726562 100.730469 315.9375 100.269531 L 315.9375 99.4375 C 315.414062 99.644531 314.875 99.832031 314.332031 100 L 314.332031 97.167969 L 315.707031 97.167969 L 315.707031 96.332031 L 314.332031 96.332031 L 314.332031 93.75 L 315.875 93.75 L 315.875 92.894531 L 311.976562 92.894531 L 311.976562 93.75 L 313.5 93.75 L 313.5 96.332031 Z M 316.351562 92.5625 L 316.351562 93.394531 L 319.4375 93.394531 C 318.75 95.582031 317.539062 97.457031 315.789062 99.019531 L 316.3125 99.6875 C 317.351562 98.769531 318.207031 97.730469 318.894531 96.5625 L 318.894531 102.957031 L 319.75 102.957031 L 319.75 94.917969 C 319.957031 94.417969 320.125 93.917969 320.289062 93.394531 L 322.4375 93.394531 L 322.4375 92.5625 Z M 316.351562 92.5625 "/>
<path style=" stroke:none;fill-rule:nonzero;fill:rgb(0%,0%,0%);fill-opacity:1;" d="M 327.226562 96.5625 L 327.226562 97.332031 L 333.726562 97.332031 L 333.726562 96.5625 Z M 326.375 98.519531 L 326.375 99.3125 L 329 99.3125 C 328.164062 100.667969 327.457031 101.5 326.9375 101.8125 C 326.875 101.832031 326.832031 101.875 326.75 101.894531 L 326.9375 102.625 C 329.207031 102.480469 331.289062 102.269531 333.1875 102.019531 C 333.4375 102.3125 333.644531 102.625 333.851562 102.9375 L 334.539062 102.457031 C 334.019531 101.6875 333.25 100.769531 332.269531 99.730469 L 331.625 100.125 C 331.976562 100.542969 332.332031 100.9375 332.664062 101.332031 C 331.125 101.5625 329.5625 101.730469 327.976562 101.832031 C 328.539062 101.332031 329.1875 100.480469 329.914062 99.3125 L 334.519531 99.3125 L 334.519531 98.519531 Z M 333.0625 93.25 L 333.0625 94.644531 L 326 94.644531 L 326 93.25 Z M 326 95.417969 L 333.894531 95.417969 L 333.894531 92.4375 L 325.164062 92.4375 L 325.164062 96.417969 C 325.144531 98.832031 324.726562 100.792969 323.894531 102.3125 L 324.519531 102.894531 C 325.5 101.082031 326 98.917969 326 96.417969 Z M 326 95.417969 "/>
<path style="fill:none;stroke-width:1;stroke-linecap:round;stroke-linejoin:round;stroke:rgb(0%,0%,0%);stroke-opacity:1;stroke-miterlimit:10;" d="M 549.000977 242.198242 L 583.266602 242.394531 M 594.264648 242.461914 L 639.200195 242.713867 " transform="matrix(1.333333,0,0,1.333333,-593.333333,-229.333333)"/>
<path style="fill:none;stroke-width:1;stroke-linecap:butt;stroke-linejoin:miter;stroke:rgb(0%,0%,0%);stroke-opacity:1;stroke-miterlimit:10;" d="M 643.199219 242.737305 L 639.200195 242.713867 M 639.206055 241.213867 L 643.199219 242.737305 L 639.191406 244.213867 " transform="matrix(1.333333,0,0,1.333333,-593.333333,-229.333333)"/>
<path style="fill:none;stroke-width:1;stroke-linecap:round;stroke-linejoin:round;stroke:rgb(0%,0%,0%);stroke-opacity:1;stroke-miterlimit:10;" d="M 683.183594 235.829102 L 683.265625 231.833008 C 683.3125 229.624023 681.557617 227.795898 679.348633 227.749023 C 679.319336 227.749023 679.292969 227.749023 679.266602 227.749023 L 592.829102 227.749023 C 590.625977 227.749023 588.838867 229.527344 588.827148 231.727539 L 588.633789 265.102539 " transform="matrix(1.333333,0,0,1.333333,-593.333333,-229.333333)"/>
<path style="fill:none;stroke-width:1;stroke-linecap:butt;stroke-linejoin:miter;stroke:rgb(0%,0%,0%);stroke-opacity:1;stroke-miterlimit:10;" d="M 588.610352 269.101562 L 588.633789 265.102539 M 590.133789 265.108398 L 588.610352 269.101562 L 587.133789 265.09082 " transform="matrix(1.333333,0,0,1.333333,-593.333333,-229.333333)"/>
<path style="fill:none;stroke-width:1;stroke-linecap:round;stroke-linejoin:round;stroke:rgb(0%,0%,0%);stroke-opacity:1;stroke-miterlimit:10;" d="M 682.999023 235.829102 L 682.999023 224.300781 " transform="matrix(1.333333,0,0,1.333333,-593.333333,-229.333333)"/>
<path style="fill:none;stroke-width:1;stroke-linecap:butt;stroke-linejoin:miter;stroke:rgb(0%,0%,0%);stroke-opacity:1;stroke-miterlimit:10;" d="M 682.999023 220.301758 L 682.999023 224.300781 M 681.499023 224.300781 L 682.999023 220.301758 L 684.499023 224.300781 " transform="matrix(1.333333,0,0,1.333333,-593.333333,-229.333333)"/>
<g clip-path="url(#clip2)" clip-rule="nonzero">
<path style=" stroke:none;fill-rule:nonzero;fill:rgb(0%,0%,0%);fill-opacity:1;" d="M 385.484375 97.316406 L 387.859375 94.941406 C 387.984375 94.796875 388.023438 94.773438 388.023438 94.691406 C 388.023438 94.546875 387.898438 94.441406 387.773438 94.441406 C 387.691406 94.441406 387.628906 94.484375 387.523438 94.609375 L 385.128906 96.984375 L 382.734375 94.609375 C 382.609375 94.460938 382.566406 94.441406 382.484375 94.441406 C 382.359375 94.441406 382.234375 94.546875 382.234375 94.691406 C 382.234375 94.773438 382.296875 94.835938 382.398438 94.941406 L 384.773438 97.316406 L 382.398438 99.710938 C 382.273438 99.816406 382.234375 99.898438 382.234375 99.960938 C 382.234375 100.109375 382.359375 100.210938 382.484375 100.210938 C 382.566406 100.210938 382.609375 100.191406 382.734375 100.046875 L 385.128906 97.671875 L 387.523438 100.046875 C 387.628906 100.171875 387.710938 100.210938 387.773438 100.210938 C 387.921875 100.210938 388.023438 100.109375 388.023438 99.960938 C 388.023438 99.878906 387.984375 99.859375 387.859375 99.710938 Z M 385.484375 97.316406 "/>
<path style=" stroke:none;fill-rule:nonzero;fill:rgb(0%,0%,0%);fill-opacity:1;" d="M 385.484375 97.316406 L 387.859375 94.941406 C 387.984375 94.796875 388.023438 94.773438 388.023438 94.691406 C 388.023438 94.546875 387.898438 94.441406 387.773438 94.441406 C 387.691406 94.441406 387.628906 94.484375 387.523438 94.609375 L 385.128906 96.984375 L 382.734375 94.609375 C 382.609375 94.460938 382.566406 94.441406 382.484375 94.441406 C 382.359375 94.441406 382.234375 94.546875 382.234375 94.691406 C 382.234375 94.773438 382.296875 94.835938 382.398438 94.941406 L 384.773438 97.316406 L 382.398438 99.710938 C 382.273438 99.816406 382.234375 99.898438 382.234375 99.960938 C 382.234375 100.109375 382.359375 100.210938 382.484375 100.210938 C 382.566406 100.210938 382.609375 100.191406 382.734375 100.046875 L 385.128906 97.671875 L 387.523438 100.046875 C 387.628906 100.171875 387.710938 100.210938 387.773438 100.210938 C 387.921875 100.210938 388.023438 100.109375 388.023438 99.960938 C 388.023438 99.878906 387.984375 99.859375 387.859375 99.710938 Z M 385.484375 97.316406 "/>
</g>
<path style=" stroke:none;fill-rule:nonzero;fill:rgb(0%,0%,0%);fill-opacity:1;" d="M 397.386719 99.042969 C 397.300781 99.144531 397.21875 99.25 397.136719 99.355469 C 396.78125 99.792969 396.574219 99.980469 396.40625 99.980469 C 396.261719 99.980469 396.21875 99.875 396.21875 99.769531 C 396.21875 99.667969 396.261719 99.457031 396.386719 99.042969 L 397.050781 96.605469 C 397.113281 96.355469 397.175781 96.082031 397.175781 95.875 C 397.175781 95.4375 396.90625 95.144531 396.386719 95.144531 C 395.613281 95.144531 394.824219 95.875 393.613281 97.792969 L 394.425781 95.167969 L 394.363281 95.144531 C 393.738281 95.269531 393.40625 95.332031 392.425781 95.519531 L 392.425781 95.707031 C 393.03125 95.730469 393.21875 95.792969 393.21875 96.042969 C 393.21875 96.105469 393.199219 96.1875 393.175781 96.230469 L 392.03125 100.4375 L 392.925781 100.4375 C 393.488281 98.542969 393.59375 98.269531 394.136719 97.457031 C 394.886719 96.355469 395.425781 95.75 395.90625 95.75 C 396.09375 95.75 396.199219 95.894531 396.199219 96.105469 C 396.199219 96.25 396.113281 96.6875 396.03125 97.0625 L 395.511719 99 C 395.324219 99.625 395.300781 99.769531 395.300781 99.894531 C 395.300781 100.355469 395.574219 100.542969 395.863281 100.542969 C 396.425781 100.542969 396.738281 100.3125 397.550781 99.1875 Z M 397.386719 99.042969 "/>
<path style="fill:none;stroke-width:1;stroke-linecap:round;stroke-linejoin:round;stroke:rgb(0%,0%,0%);stroke-opacity:1;stroke-miterlimit:10;" d="M 510.200195 271.254883 L 510.200195 259.899414 " transform="matrix(1.333333,0,0,1.333333,-593.333333,-229.333333)"/>
<path style="fill:none;stroke-width:1;stroke-linecap:butt;stroke-linejoin:miter;stroke:rgb(0%,0%,0%);stroke-opacity:1;stroke-miterlimit:10;" d="M 510.200195 255.897461 L 510.200195 259.899414 M 508.700195 259.899414 L 510.200195 255.897461 L 511.700195 259.899414 " transform="matrix(1.333333,0,0,1.333333,-593.333333,-229.333333)"/>
<path style="fill:none;stroke-width:1;stroke-linecap:round;stroke-linejoin:round;stroke:rgb(0%,0%,0%);stroke-opacity:1;stroke-miterlimit:10;" d="M 682.999023 271.254883 L 682.999023 259.726562 " transform="matrix(1.333333,0,0,1.333333,-593.333333,-229.333333)"/>
<path style="fill:none;stroke-width:1;stroke-linecap:butt;stroke-linejoin:miter;stroke:rgb(0%,0%,0%);stroke-opacity:1;stroke-miterlimit:10;" d="M 682.999023 255.727539 L 682.999023 259.726562 M 681.499023 259.726562 L 682.999023 255.727539 L 684.499023 259.726562 " transform="matrix(1.333333,0,0,1.333333,-593.333333,-229.333333)"/>
<path style="fill:none;stroke-width:1;stroke-linecap:round;stroke-linejoin:round;stroke:rgb(0%,0%,0%);stroke-opacity:1;stroke-miterlimit:10;" d="M 549.000977 248.101562 L 567.027344 248.227539 C 569.227539 248.242188 571 250.026367 571 252.226562 L 571 265.102539 " transform="matrix(1.333333,0,0,1.333333,-593.333333,-229.333333)"/>
<path style="fill:none;stroke-width:1;stroke-linecap:butt;stroke-linejoin:miter;stroke:rgb(0%,0%,0%);stroke-opacity:1;stroke-miterlimit:10;" d="M 571 269.101562 L 571 265.102539 M 572.5 265.102539 L 571 269.101562 L 569.5 265.102539 " transform="matrix(1.333333,0,0,1.333333,-593.333333,-229.333333)"/>
<path style="fill:none;stroke-width:1;stroke-linecap:round;stroke-linejoin:round;stroke:rgb(0%,0%,0%);stroke-opacity:1;stroke-miterlimit:10;" d="M 557.801758 248.101562 L 575.828125 248.227539 C 578.022461 248.242188 579.800781 250.026367 579.800781 252.226562 L 579.800781 265.102539 " transform="matrix(1.333333,0,0,1.333333,-593.333333,-229.333333)"/>
<path style="fill:none;stroke-width:1;stroke-linecap:butt;stroke-linejoin:miter;stroke:rgb(0%,0%,0%);stroke-opacity:1;stroke-miterlimit:10;" d="M 579.800781 269.101562 L 579.800781 265.102539 M 581.300781 265.102539 L 579.800781 269.101562 L 578.300781 265.102539 " transform="matrix(1.333333,0,0,1.333333,-593.333333,-229.333333)"/>
<path style="fill:none;stroke-width:1;stroke-linecap:round;stroke-linejoin:round;stroke:rgb(0%,0%,0%);stroke-opacity:1;stroke-miterlimit:10;" d="M 619.700195 271 L 619.700195 267.944336 C 619.700195 265.758789 621.458008 263.977539 623.643555 263.945312 L 669.191406 263.30957 C 671.183594 263.280273 672.8125 261.800781 673.09375 259.890625 " transform="matrix(1.333333,0,0,1.333333,-593.333333,-229.333333)"/>
<path style="fill:none;stroke-width:1;stroke-linecap:butt;stroke-linejoin:miter;stroke:rgb(0%,0%,0%);stroke-opacity:1;stroke-miterlimit:10;" d="M 672.926758 255.897461 L 673.09375 259.893555 M 671.59375 259.958008 L 672.926758 255.897461 L 674.59082 259.832031 " transform="matrix(1.333333,0,0,1.333333,-593.333333,-229.333333)"/>
</g>
</svg>
